<svg aria-hidden="true" style="position: absolute; width: 0; height: 0; overflow: hidden;" version="1.1" xmlns="http://www.w3.org/2000/svg" xmlns:xlink="http://www.w3.org/1999/xlink">
<defs>
<symbol id="icon-telegram" viewBox="0 0 32 32">
<path d="M29.188 2.781c-0.188 0.044-0.594 0.181-0.906 0.3-0.306 0.125-6.438 2.444-13.625 5.169-7.181 2.719-13.188 5-13.344 5.069-1.275 0.563-1.681 1.744-0.906 2.606 0.15 0.163 0.406 0.375 0.575 0.462 0.163 0.087 1.662 0.663 3.331 1.269 1.669 0.613 3.063 1.137 3.106 1.181 0.037 0.038 0.763 1.656 1.612 3.6 0.844 1.944 1.594 3.669 1.675 3.844 0.169 0.387 0.731 0.962 1.106 1.144 0.669 0.319 1.394 0.3 2.113-0.056 0.419-0.206 0.581-0.344 2.219-1.887 0.575-0.544 1.081-0.981 1.125-0.962s1.494 1.006 3.231 2.2c1.738 1.2 3.3 2.244 3.481 2.325 1.294 0.594 2.631 0.106 3.238-1.188 0.188-0.4 0.469-1.675 2.481-11.387 2.475-11.944 2.419-11.631 2.156-12.394-0.363-1.038-1.506-1.594-2.669-1.294zM30.050 4.638c0.044 0.044 0.075 0.162 0.075 0.269 0 0.3-4.494 21.962-4.6 22.163-0.15 0.294-0.363 0.4-0.637 0.313-0.125-0.038-1.494-0.944-3.044-2.006-1.544-1.069-3.969-2.738-5.387-3.706s-2.569-1.781-2.563-1.8c0.006-0.025 2.106-1.962 4.669-4.306 5.35-4.9 5.538-5.081 5.631-5.362 0.194-0.588-0.35-1.256-0.969-1.181-0.163 0.019-0.675 0.256-1.413 0.65-1.212 0.656-9.744 5.231-12.225 6.556-0.794 0.425-1.488 0.775-1.544 0.775-0.050 0-0.319-0.081-0.588-0.181-0.269-0.106-1.5-0.556-2.737-1.012-1.237-0.45-2.269-0.838-2.294-0.863-0.025-0.019 0.875-0.387 2-0.813s4.662-1.762 7.856-2.975c3.2-1.213 7.613-2.888 9.813-3.719s4.706-1.781 5.563-2.112c2.163-0.819 2.238-0.844 2.394-0.688zM17 14.456c-0.050 0.050-1.275 1.169-2.719 2.494-1.444 1.319-2.669 2.456-2.719 2.519-0.075 0.087-0.1 0.425-0.137 1.619-0.025 0.831-0.056 1.606-0.063 1.738-0.019 0.194-0.162-0.106-1.012-2.063-0.55-1.256-0.975-2.294-0.938-2.306 0.031-0.012 1.744-0.938 3.806-2.050s3.775-2.025 3.812-2.025c0.031-0.006 0.019 0.031-0.031 0.075zM14.469 22.569c0.6 0.413 1.106 0.775 1.119 0.8 0.025 0.038-2.169 2.137-2.281 2.181-0.031 0.012-0.056-0.825-0.056-1.856 0-1.169 0.025-1.881 0.063-1.881 0.031 0 0.55 0.337 1.156 0.756z"></path>
</symbol>
<symbol id="icon-github" viewBox="0 0 32 32">
<path d="M14.106 0.781c-3 0.375-5.606 1.444-8.012 3.275-0.737 0.556-2.094 1.888-2.656 2.6-1.756 2.219-2.888 4.844-3.294 7.625-0.131 0.912-0.15 3.087-0.031 3.969 0.331 2.469 1.15 4.688 2.456 6.65 0.706 1.063 1.094 1.538 1.95 2.406 1.675 1.7 3.556 2.919 5.794 3.769 0.55 0.206 0.713 0.244 0.994 0.225 0.287-0.025 0.369-0.063 0.519-0.231l0.175-0.194v-1.506c0-1.306-0.012-1.5-0.094-1.469-0.256 0.094-1.25 0.175-1.813 0.144-0.781-0.050-1.238-0.175-1.856-0.494-0.75-0.387-1.175-0.881-1.725-1.994-0.519-1.069-0.925-1.581-1.569-2.019-0.756-0.512-0.881-0.806-0.412-0.969 0.2-0.063 0.338-0.069 0.675-0.012 0.838 0.137 1.625 0.7 2.212 1.587 0.55 0.844 1.088 1.294 1.831 1.544 0.688 0.231 1.831 0.163 2.594-0.163 0.175-0.069 0.213-0.131 0.3-0.488 0.144-0.581 0.35-1.019 0.644-1.387l0.262-0.319-0.606-0.075c-1.269-0.169-2.556-0.581-3.544-1.131-0.594-0.337-1.694-1.4-2.013-1.95-0.731-1.25-1.075-2.675-1.075-4.5 0-1.581 0.35-2.681 1.213-3.825l0.394-0.525-0.125-0.369c-0.088-0.256-0.131-0.588-0.156-1.15-0.031-0.869 0.031-1.35 0.275-2.119 0.181-0.581 0.231-0.606 0.95-0.5 0.856 0.131 2.031 0.625 3.144 1.313l0.488 0.3 0.456-0.119c2.012-0.525 4.894-0.525 7.063 0l0.488 0.113 0.319-0.213c0.519-0.35 1.669-0.931 2.244-1.131 0.606-0.213 1.4-0.35 1.65-0.287 0.137 0.031 0.181 0.112 0.313 0.525 0.087 0.269 0.188 0.675 0.231 0.906 0.094 0.563 0.044 1.825-0.1 2.344l-0.113 0.412 0.344 0.444c0.988 1.281 1.381 2.737 1.238 4.612-0.256 3.406-1.619 5.331-4.463 6.338-0.55 0.194-1.738 0.456-2.431 0.544l-0.356 0.038 0.225 0.25c0.125 0.137 0.319 0.456 0.438 0.7 0.369 0.788 0.4 1.106 0.4 3.956 0 2.406 0.006 2.563 0.119 2.744 0.144 0.231 0.481 0.369 0.813 0.319 0.363-0.050 1.406-0.456 2.35-0.919 3.019-1.481 5.55-3.969 7.056-6.931 0.856-1.688 1.356-3.3 1.613-5.194 0.113-0.85 0.094-3.113-0.031-3.956-0.694-4.556-3.1-8.369-6.887-10.906-1.938-1.3-4.225-2.181-6.594-2.55-0.906-0.137-3.369-0.175-4.269-0.056z"></path>
</symbol>
<symbol id="icon-mail" viewBox="0 0 32 32">
<path d="M2.256 4.1c-1.056 0.281-1.881 1.125-2.163 2.194-0.144 0.537-0.144 18.875 0 19.413 0.281 1.081 1.113 1.919 2.188 2.2 0.325 0.081 1.931 0.094 13.719 0.094 14.563 0 13.65 0.025 14.387-0.35 0.444-0.225 0.994-0.769 1.231-1.206 0.406-0.762 0.381-0.156 0.381-10.444 0-8.194-0.012-9.394-0.094-9.719-0.281-1.075-1.119-1.906-2.2-2.188-0.531-0.138-26.931-0.131-27.45 0.006zM29.294 6.050c0.044 0.025-2.425 2.212-6.594 5.819-6.425 5.575-6.669 5.775-6.806 5.688-0.075-0.050-3.094-2.65-6.7-5.775-4.025-3.494-6.525-5.706-6.481-5.731 0.094-0.063 26.481-0.063 26.581 0zM15.644 19.931c0.238 0.1 0.669 0.063 0.869-0.075 0.081-0.050 3.144-2.694 6.819-5.881l6.669-5.781-0.012 8.588c-0.019 8.563-0.019 8.587-0.15 8.756-0.069 0.094-0.206 0.231-0.3 0.3l-0.169 0.131h-26.738l-0.169-0.131c-0.094-0.069-0.231-0.206-0.3-0.3-0.131-0.169-0.131-0.194-0.15-8.762l-0.012-8.588 6.719 5.831c3.7 3.2 6.813 5.863 6.925 5.912z"></path>
</symbol>
<symbol id="icon-smartphone" viewBox="0 0 32 32">
<path d="M10.875 1.681c-1.137 0.050-1.55 0.156-2.181 0.563-0.456 0.294-1.037 0.95-1.294 1.456-0.419 0.838-0.4 0.138-0.4 12.275 0 7.637 0.019 11.113 0.069 11.375 0.244 1.331 1.369 2.525 2.712 2.869 0.556 0.144 11.881 0.144 12.438 0 1.038-0.269 1.956-1.019 2.4-1.975 0.137-0.288 0.275-0.694 0.313-0.894 0.094-0.525 0.094-22.175 0-22.7-0.038-0.2-0.175-0.606-0.313-0.894-0.313-0.669-1-1.381-1.619-1.681-0.85-0.413-0.65-0.4-6.125-0.419-2.731-0.006-5.431 0-6 0.025zM11 3.994c0 0.981 0.719 1.95 1.644 2.225 0.469 0.138 6.244 0.138 6.713 0 0.931-0.275 1.644-1.237 1.644-2.225v-0.306h0.363c0.462 0 0.913 0.206 1.219 0.563 0.45 0.531 0.419-0.375 0.419 11.75s0.031 11.219-0.419 11.75c-0.131 0.15-0.375 0.331-0.544 0.413l-0.319 0.15h-11.438l-0.319-0.15c-0.169-0.081-0.412-0.262-0.544-0.413-0.45-0.531-0.419 0.375-0.419-11.75s-0.031-11.219 0.419-11.75c0.306-0.356 0.756-0.563 1.225-0.563h0.356v0.306z"></path>
</symbol>
</defs>
</svg>
